inDegrees=yes
name=ik_XSDot_20240315_154836_orientations
DataType=double
version=3
OpenSimVersion=4.5-2024-01-10-34fd6af
endheader
time	pelvis_tilt	pelvis_list	pelvis_rotation	pelvis_tx	pelvis_ty	pelvis_tz	hip_flexion_r	hip_adduction_r	hip_rotation_r	knee_angle_r	ankle_angle_r	subtalar_angle_r	mtp_angle_r	hip_flexion_l	hip_adduction_l	hip_rotation_l	knee_angle_l	ankle_angle_l	subtalar_angle_l	mtp_angle_l	lumbar_extension	lumbar_bending	lumbar_rotation
1.500000000000001	46.20932512922376	-15.00942084081777	58.96065717970246	0	0.95	0	-167.7798194847773	-8.252683432262426	4.233664125910319	-14.2890463047773	0	0	0	-7.727493577258586	-9.508984802674796	-0.2284962107094081	-138.3672209955569	0	0	0	0	0	0
1.510000000000001	46.47309924998671	-15.05308302526107	57.68518999876827	0	0.95	0	-168.1319793726206	-8.674553621115416	2.093029325438261	-13.4537614318227	0	0	0	-7.753016418852757	-9.484873309979813	-1.565576179686907	-138.6875727696937	0	0	0	0	0	0
1.520000000000001	46.50855893108964	-15.0506412365969	56.33486569967702	0	0.95	0	-168.5179172785953	-8.877356742597501	-0.06621656962856226	-12.5247185319314	0	0	0	-7.750856362971127	-9.241944606273419	-2.887405279680869	-138.9313944522635	0	0	0	0	0	0
1.530000000000001	46.35831844554907	-15.13782705848644	54.98048513448943	0	0.95	0	-168.6642542395747	-8.998451838181646	-2.096398828676868	-11.61554704385503	0	0	0	-7.577980417769415	-8.929462730076121	-4.178337136750497	-139.1526110708713	0	0	0	0	0	0
1.540000000000001	46.20046740159989	-15.11996700663388	53.62340390421872	0	0.95	0	-168.6801199312123	-9.040354169252897	-4.049248266204436	-11.12150607838221	0	0	0	-7.542818093718408	-8.543098241405254	-5.495830234745706	-139.3154843419439	0	0	0	0	0	0
1.550000000000001	46.14250980781701	-15.10901985388408	52.08874784661739	0	0.95	0	-168.5196919403514	-9.1453039511795	-6.052510511072588	-11.26307971687323	0	0	0	-7.568506706004828	-8.248570582637242	-7.044359925687902	-139.4702980651399	0	0	0	0	0	0
1.560000000000001	46.1326089773428	-14.93071284935857	50.38035205293671	0	0.95	0	-168.2954382792791	-9.231283905403853	-8.054969748489706	-11.7324567345359	0	0	0	-7.814175221781388	-7.860909790640504	-8.801995024308006	-139.5783344390424	0	0	0	0	0	0
1.570000000000001	46.35479461530582	-14.59714564881798	48.72805706067498	0	0.95	0	-168.0114138983429	-9.588600543908059	-9.769965855280971	-12.1066125309793	0	0	0	-8.308673366055414	-7.543487012312537	-10.56704704247858	-139.6989041232991	0	0	0	0	0	0
1.580000000000001	46.82467023940229	-14.07600215198917	47.16678329784769	0	0.95	0	-167.7456621796309	-10.0705356982665	-11.13252204958116	-12.66635152915693	0	0	0	-9.102631417727977	-7.296904585480683	-12.31917102817556	-139.8049025297609	0	0	0	0	0	0
1.590000000000001	47.56496234382158	-13.40017470967927	45.67027225525673	0	0.95	0	-167.7594767685204	-10.63937812989015	-12.23960056453318	-13.26506920545556	0	0	0	-10.20651264427707	-7.104176197601926	-14.12663095144293	-139.8681163935731	0	0	0	0	0	0
1.600000000000001	48.4837698897684	-12.60195255675085	44.31179992867084	0	0.95	0	-168.09621974947	-11.19247158566994	-13.00897983818418	-13.33434343939	0	0	0	-11.48573646895659	-6.919202996793864	-15.80974520051914	-139.8837868182792	0	0	0	0	0	0
1.610000000000001	49.50926900265732	-11.65540293878519	43.05387366335824	0	0.95	0	-168.9290709229263	-11.51950541019066	-13.46892485773157	-12.56012035660887	0	0	0	-12.8957930193693	-6.668892359509123	-17.38354117675382	-139.8133422138857	0	0	0	0	0	0
1.620000000000001	50.60844901005509	-10.66988971178045	41.80296494718511	0	0.95	0	-170.1819529469989	-11.70825508729652	-13.73029674673765	-11.22440190361133	0	0	0	-14.32811032564658	-6.344768497649016	-18.94247629183912	-139.7772674717698	0	0	0	0	0	0
1.630000000000001	51.82265410455791	-9.727592358318786	40.65498680450808	0	0.95	0	-171.6379309506169	-11.88638938850902	-13.66390659565599	-9.713184699862675	0	0	0	-15.71241931719496	-6.078659834971336	-20.43445627095976	-139.82930109438	0	0	0	0	0	0
1.640000000000001	52.97098085518382	-8.8734271888422	39.69091332950418	0	0.95	0	-173.0194181536259	-11.98200350017123	-13.24068476724568	-8.344462771645503	0	0	0	-16.99204087289036	-5.763164140701247	-21.73620869885645	-139.9069734465523	0	0	0	0	0	0
1.650000000000001	53.91026339579591	-8.249004858472668	38.99424548600265	0	0.95	0	-173.9808211654498	-11.9923532520156	-12.43493769098488	-7.542899650323696	0	0	0	-17.88964759121096	-5.560001796278446	-22.76347240674804	-140.1705409410373	0	0	0	0	0	0
1.660000000000001	54.45926597223987	-7.84019978502208	38.41206891171656	0	0.95	0	-174.3084470475107	-11.84727190870243	-11.41029916928319	-7.676735864695454	0	0	0	-18.37990186735653	-5.261732363656737	-23.61459082807402	-140.3387972827407	0	0	0	0	0	0
1.670000000000001	54.77449619053787	-7.549487441292869	37.91262247071955	0	0.95	0	-174.1617408015092	-11.56317499088464	-10.26453591006237	-8.733550954077604	0	0	0	-18.61610309866379	-4.964939789460439	-24.34305916926146	-140.4388448452721	0	0	0	0	0	0
1.680000000000001	54.85640635986563	-7.328777868224252	37.48930726435062	0	0.95	0	-173.554497466995	-11.11461708617947	-8.986725791180696	-10.58377711684518	0	0	0	-18.63138313566744	-4.627270862667523	-24.93679880552171	-140.4773611029206	0	0	0	0	0	0
1.690000000000001	54.81348357950407	-7.102761717930428	37.12773425240147	0	0.95	0	-172.8801675121145	-10.49200070611685	-7.665421599272939	-12.69414667687321	0	0	0	-18.51951368645837	-4.27673021970082	-25.4370654339026	-140.5523502730627	0	0	0	0	0	0
1.700000000000001	54.60614130682419	-6.868981669436081	36.89267367078239	0	0.95	0	-172.0304460899796	-9.717679721041208	-6.281996729585405	-14.94111209185926	0	0	0	-18.24917327699583	-3.907598611114695	-25.77270189508859	-140.6620302666109	0	0	0	0	0	0
1.710000000000001	54.12137182096808	-6.612215185551005	36.85993156504302	0	0.95	0	-170.9006060846443	-8.686605697440553	-4.759328021771599	-17.33382210883395	0	0	0	-17.70438394218935	-3.511153877402364	-25.81770406595757	-140.7494963401681	0	0	0	0	0	0
1.720000000000001	53.43556082594237	-6.319816319373825	37.04275686766147	0	0.95	0	-169.6078188693797	-7.335932779551755	-3.06210056964812	-19.57559871097692	0	0	0	-16.99361638335796	-3.066096805359639	-25.58976541159952	-140.7853840497776	0	0	0	0	0	0
1.730000000000001	52.56261281859924	-6.021388656671018	37.40850107339099	0	0.95	0	-168.235546981706	-5.784642828600859	-1.28780618779248	-21.48413781356936	0	0	0	-16.05825836108758	-2.588896767542242	-25.15203249303837	-140.8971444725255	0	0	0	0	0	0
1.740000000000001	51.71591229048396	-5.665150373110206	37.86975972646533	0	0.95	0	-167.0414100623663	-4.180026389450518	0.43490225053674	-22.94214549615743	0	0	0	-15.14865136330486	-2.104681398495099	-24.64433602189706	-141.0459262613389	0	0	0	0	0	0
1.750000000000001	51.12555969762776	-5.246949929315921	38.33858513829589	0	0.95	0	-166.2368063212084	-2.76278395078657	2.04387017146746	-23.58250437968067	0	0	0	-14.45426711999106	-1.696336409852504	-24.22809467682424	-141.1884830789024	0	0	0	0	0	0
1.760000000000001	50.94462517496198	-4.803350869357767	38.73380387924117	0	0.95	0	-165.8732292896829	-1.668733600411307	3.445633472546717	-23.44723614537124	0	0	0	-14.07744633179047	-1.461344352681795	-24.01808568972437	-141.3460683285429	0	0	0	0	0	0
1.770000000000001	51.29802313691783	-4.242067183928321	38.93513876219725	0	0.95	0	-166.0031719380259	-0.9753106835252091	4.475523307131377	-22.724732575557	0	0	0	-14.24194214080955	-1.353988470271051	-24.12112401017961	-141.4940289952058	0	0	0	0	0	0
1.780000000000001	52.14201990657362	-3.511616341657152	38.94349473304371	0	0.95	0	-166.637076941698	-0.6637950712043678	5.077140112578772	-21.83759277751902	0	0	0	-15.0151715427815	-1.305427855559338	-24.49683889269476	-141.4809034991697	0	0	0	0	0	0
1.790000000000001	53.0455138834751	-2.791882626121254	38.80298195724453	0	0.95	0	-167.2342238880726	-0.5635333263511038	5.227061651077393	-21.37143243830394	0	0	0	-15.86536649673826	-1.252953088120946	-25.04632894245757	-141.4638648606629	0	0	0	0	0	0
1.800000000000001	53.72040749220916	-2.238331952693594	38.61123261631256	0	0.95	0	-167.5187277736022	-0.7069138290633556	4.950255594720186	-21.36179436326294	0	0	0	-16.4677500879495	-1.205700681743064	-25.64358165845386	-141.3655597657682	0	0	0	0	0	0
1.810000000000001	54.35457339812686	-1.747364079784841	38.27628481927385	0	0.95	0	-167.6706831725	-1.118934986256501	4.182228049677424	-21.52072624313368	0	0	0	-16.99524233059502	-1.159399842538181	-26.38851316393594	-141.2666399180959	0	0	0	0	0	0
1.820000000000001	55.12519535731693	-1.18713824478276	38.10799505155087	0	0.95	0	-167.9199908482705	-1.676085357674612	3.310696349439361	-21.53296947210389	0	0	0	-17.70166118559136	-1.155729850338676	-26.95861207946773	-141.0784579565629	0	0	0	0	0	0
1.830000000000001	55.80527256577527	-0.6345033167070891	38.29745448545807	0	0.95	0	-167.8992419539458	-2.097088925966508	2.651870244357393	-21.99770481763341	0	0	0	-18.29530767200551	-1.166310972414946	-27.09515216998953	-140.8717862978894	0	0	0	0	0	0
1.840000000000001	56.12553086977733	-0.2118014060335094	38.69017163693402	0	0.95	0	-167.6930421561381	-2.013623423813633	2.37822336473972	-23.59127943882518	0	0	0	-18.58557385349396	-1.006938952782198	-27.01071358567253	-140.4035039183038	0	0	0	0	0	0
1.850000000000001	56.25717724745463	-0.02773519203031468	39.37441100403776	0	0.95	0	-167.1817784502811	-1.937616641168934	2.88756092128515	-24.33879562147202	0	0	0	-18.58806151834522	-0.9496564585882102	-26.82514427914896	-139.786948221734	0	0	0	0	0	0
1.860000000000001	56.20858866242573	-0.2260522288719628	40.05420270061242	0	0.95	0	-166.3958783445308	-2.250375158339364	3.406997633341192	-23.71837983855235	0	0	0	-18.45243160611811	-0.9877646753977095	-26.88164507159309	-138.9020692442995	0	0	0	0	0	0
1.870000000000001	56.44157320048551	-0.7190507308189135	40.00861320929575	0	0.95	0	-165.7544831379957	-3.317894991708097	2.965885610988864	-24.49895207974516	0	0	0	-18.57047756254048	-1.120422315453973	-27.84521942194297	-137.8227981777351	0	0	0	0	0	0
1.880000000000001	57.66852523337707	-0.3105524678282848	38.80756962064695	0	0.95	0	-166.7552338574637	-4.722566831210547	1.626960549623703	-23.76752849030108	0	0	0	-20.03068292505084	-0.834578532084079	-29.99654086349737	-136.8302451378696	0	0	0	0	0	0
